<svg xmlns="http://www.w3.org/2000/svg" width="139" height="27" viewBox="0 0 139 27" fill="none"><path d="M18.5793 1.62983L7.74623 1.5481C6.55459 1.5403 5.57323 2.5089 5.56543 3.70054L5.43782 23.2001C5.43002 24.3918 6.39862 25.3731 7.59026 25.3809L18.4234 25.4518C19.615 25.4596 20.5964 24.491 20.6042 23.2994L20.7318 3.79979C20.7396 2.60815 19.7709 1.63762 18.5793 1.62983ZM18.4517 21.1186L7.61862 21.0477L7.71787 5.88134L18.551 5.95223L18.4517 21.1186Z" fill="white"></path><path d="M39.84 7.36359H42.2719V15.4772C42.2719 16.2272 42.1033 16.8787 41.7662 17.4318C41.4329 17.9848 40.9688 18.4109 40.3741 18.7102C39.7794 19.0094 39.0882 19.159 38.3003 19.159C37.5995 19.159 36.9632 19.0359 36.3912 18.7897C35.823 18.5397 35.3722 18.1609 35.0389 17.6534C34.7056 17.142 34.5408 16.5 34.5446 15.7272H36.9935C37.001 16.034 37.0635 16.2973 37.181 16.517C37.3022 16.7329 37.4669 16.8996 37.6753 17.017C37.8874 17.1306 38.1374 17.1875 38.4253 17.1875C38.7283 17.1875 38.984 17.1231 39.1923 16.9943C39.4044 16.8617 39.5654 16.6685 39.6753 16.4147C39.7851 16.1609 39.84 15.8484 39.84 15.4772V7.36359ZM54.0389 7.36359V19H51.9139L46.8514 11.6761H46.7662V19H44.306V7.36359H46.465L51.4878 14.6818H51.59V7.36359H54.0389ZM60.1966 19H56.0716V7.36359H60.2307C61.4011 7.36359 62.4087 7.59655 63.2534 8.06246C64.0981 8.52458 64.7477 9.18935 65.2023 10.0568C65.6606 10.9242 65.8898 11.9621 65.8898 13.1704C65.8898 14.3825 65.6606 15.4242 65.2023 16.2954C64.7477 17.1666 64.0943 17.8352 63.242 18.3011C62.3936 18.767 61.3784 19 60.1966 19ZM58.5318 16.892H60.0943C60.8216 16.892 61.4333 16.7632 61.9295 16.5056C62.4295 16.2443 62.8045 15.8409 63.0545 15.2954C63.3083 14.7462 63.4352 14.0378 63.4352 13.1704C63.4352 12.3106 63.3083 11.6079 63.0545 11.0625C62.8045 10.517 62.4314 10.1155 61.9352 9.85791C61.439 9.60034 60.8273 9.47155 60.1 9.47155H58.5318V16.892ZM74.0247 10.7102C73.9793 10.2519 73.7842 9.89579 73.4395 9.642C73.0948 9.38822 72.627 9.26132 72.0361 9.26132C71.6346 9.26132 71.2955 9.31814 71.019 9.43178C70.7425 9.54162 70.5304 9.69503 70.3827 9.892C70.2387 10.089 70.1668 10.3125 70.1668 10.5625C70.1592 10.7708 70.2027 10.9526 70.2974 11.1079C70.3959 11.2632 70.5304 11.3977 70.7008 11.5113C70.8713 11.6212 71.0683 11.7178 71.2918 11.8011C71.5152 11.8806 71.7539 11.9488 72.0077 12.0056L73.0531 12.2556C73.5607 12.3693 74.0266 12.5208 74.4508 12.7102C74.8751 12.8996 75.2425 13.1325 75.5531 13.409C75.8637 13.6856 76.1043 14.0113 76.2747 14.3863C76.449 14.7613 76.538 15.1912 76.5418 15.6761C76.538 16.3882 76.3561 17.0056 75.9963 17.5284C75.6402 18.0473 75.1251 18.4507 74.4508 18.7386C73.7804 19.0227 72.9717 19.1647 72.0247 19.1647C71.0853 19.1647 70.2671 19.0208 69.5702 18.7329C68.877 18.445 68.3353 18.0189 67.9452 17.4545C67.5588 16.8863 67.3561 16.1837 67.3372 15.3465H69.7179C69.7444 15.7367 69.8561 16.0625 70.0531 16.3238C70.2539 16.5814 70.5209 16.7765 70.8543 16.909C71.1914 17.0378 71.5721 17.1022 71.9963 17.1022C72.413 17.1022 72.7747 17.0416 73.0815 16.9204C73.3921 16.7992 73.6327 16.6306 73.8031 16.4147C73.9736 16.1988 74.0588 15.9507 74.0588 15.6704C74.0588 15.409 73.9811 15.1894 73.8258 15.0113C73.6743 14.8333 73.4508 14.6818 73.1554 14.5568C72.8637 14.4318 72.5058 14.3181 72.0815 14.2159L70.8145 13.8977C69.8334 13.659 69.0588 13.2859 68.4906 12.7784C67.9224 12.2708 67.6402 11.5871 67.644 10.7272C67.6402 10.0227 67.8277 9.40715 68.2065 8.88064C68.5891 8.35412 69.1137 7.94314 69.7804 7.64769C70.4471 7.35223 71.2046 7.2045 72.0531 7.2045C72.9168 7.2045 73.6705 7.35223 74.3145 7.64769C74.9622 7.94314 75.466 8.35412 75.8258 8.88064C76.1857 9.40715 76.3713 10.017 76.3827 10.7102H74.0247ZM89.6156 11.125C89.5361 10.8484 89.4243 10.6041 89.2804 10.392C89.1365 10.1761 88.9603 9.99428 88.752 9.84655C88.5474 9.69503 88.3126 9.5795 88.0474 9.49996C87.7861 9.42041 87.4963 9.38064 87.1781 9.38064C86.5834 9.38064 86.0607 9.52837 85.6099 9.82382C85.163 10.1193 84.8145 10.5492 84.5645 11.1136C84.3145 11.6742 84.1895 12.3598 84.1895 13.1704C84.1895 13.981 84.3126 14.6704 84.5588 15.2386C84.805 15.8068 85.1535 16.2405 85.6043 16.5397C86.055 16.8352 86.5872 16.9829 87.2008 16.9829C87.7577 16.9829 88.233 16.8844 88.627 16.6875C89.0247 16.4867 89.3277 16.2045 89.5361 15.8409C89.7482 15.4772 89.8543 15.0473 89.8543 14.5511L90.3543 14.625H87.3543V12.7727H92.2236V14.2386C92.2236 15.2613 92.0077 16.1401 91.5758 16.875C91.144 17.606 90.5493 18.1704 89.7918 18.5681C89.0342 18.9621 88.1668 19.159 87.1895 19.159C86.0986 19.159 85.1402 18.9185 84.3145 18.4375C83.4887 17.9526 82.8448 17.2651 82.3827 16.375C81.9243 15.481 81.6952 14.4204 81.6952 13.1931C81.6952 12.25 81.8315 11.409 82.1043 10.6704C82.3808 9.92799 82.7671 9.2992 83.2633 8.78405C83.7596 8.2689 84.3372 7.87685 84.9963 7.60791C85.6554 7.33897 86.3694 7.2045 87.1383 7.2045C87.7974 7.2045 88.4111 7.30109 88.9793 7.49428C89.5474 7.68367 90.0512 7.95261 90.4906 8.30109C90.9338 8.64958 91.2955 9.06435 91.5758 9.54541C91.8561 10.0227 92.0361 10.5492 92.1156 11.125H89.6156ZM94.0716 19V7.36359H98.6625C99.5413 7.36359 100.291 7.52079 100.912 7.83519C101.537 8.14579 102.013 8.58708 102.339 9.15905C102.668 9.72723 102.833 10.3958 102.833 11.1647C102.833 11.9375 102.666 12.6022 102.333 13.159C102 13.7121 101.517 14.1363 100.884 14.4318C100.255 14.7272 99.4939 14.875 98.6 14.875H95.5261V12.8977H98.2023C98.672 12.8977 99.0621 12.8333 99.3727 12.7045C99.6833 12.5757 99.9144 12.3825 100.066 12.125C100.221 11.8674 100.299 11.5473 100.299 11.1647C100.299 10.7784 100.221 10.4526 100.066 10.1875C99.9144 9.92231 99.6814 9.72155 99.367 9.58519C99.0564 9.44503 98.6644 9.37496 98.1909 9.37496H96.5318V19H94.0716ZM100.356 13.7045L103.248 19H100.532L97.7023 13.7045H100.356ZM115.265 13.1818C115.265 14.4507 115.024 15.5303 114.543 16.4204C114.066 17.3106 113.414 17.9905 112.589 18.4602C111.767 18.9261 110.842 19.159 109.816 19.159C108.782 19.159 107.854 18.9242 107.032 18.4545C106.21 17.9848 105.56 17.3049 105.083 16.4147C104.606 15.5246 104.367 14.4469 104.367 13.1818C104.367 11.9128 104.606 10.8333 105.083 9.94314C105.56 9.05299 106.21 8.37496 107.032 7.90905C107.854 7.43935 108.782 7.2045 109.816 7.2045C110.842 7.2045 111.767 7.43935 112.589 7.90905C113.414 8.37496 114.066 9.05299 114.543 9.94314C115.024 10.8333 115.265 11.9128 115.265 13.1818ZM112.77 13.1818C112.77 12.3598 112.647 11.6666 112.401 11.1022C112.159 10.5378 111.816 10.1098 111.373 9.81814C110.93 9.52647 110.411 9.38064 109.816 9.38064C109.221 9.38064 108.702 9.52647 108.259 9.81814C107.816 10.1098 107.471 10.5378 107.225 11.1022C106.983 11.6666 106.861 12.3598 106.861 13.1818C106.861 14.0037 106.983 14.6969 107.225 15.2613C107.471 15.8257 107.816 16.2537 108.259 16.5454C108.702 16.8371 109.221 16.9829 109.816 16.9829C110.411 16.9829 110.93 16.8371 111.373 16.5454C111.816 16.2537 112.159 15.8257 112.401 15.2613C112.647 14.6969 112.77 14.0037 112.77 13.1818ZM124.275 7.36359H126.735V14.9204C126.735 15.7689 126.532 16.5113 126.127 17.1477C125.725 17.784 125.163 18.2803 124.439 18.6363C123.716 18.9886 122.873 19.1647 121.911 19.1647C120.945 19.1647 120.1 18.9886 119.377 18.6363C118.653 18.2803 118.091 17.784 117.689 17.1477C117.288 16.5113 117.087 15.7689 117.087 14.9204V7.36359H119.547V14.7102C119.547 15.1534 119.644 15.5473 119.837 15.892C120.034 16.2367 120.311 16.5075 120.667 16.7045C121.023 16.9015 121.438 17 121.911 17C122.388 17 122.803 16.9015 123.155 16.7045C123.511 16.5075 123.786 16.2367 123.979 15.892C124.176 15.5473 124.275 15.1534 124.275 14.7102V7.36359ZM128.759 19V7.36359H133.35C134.233 7.36359 134.984 7.53215 135.606 7.86928C136.227 8.20261 136.7 8.66662 137.026 9.26132C137.356 9.85223 137.52 10.534 137.52 11.3068C137.52 12.0795 137.354 12.7613 137.02 13.3522C136.687 13.9431 136.204 14.4034 135.572 14.7329C134.943 15.0625 134.181 15.2272 133.287 15.2272H130.361V13.2556H132.89C133.363 13.2556 133.753 13.1742 134.06 13.0113C134.371 12.8447 134.602 12.6155 134.753 12.3238C134.909 12.0284 134.986 11.6894 134.986 11.3068C134.986 10.9204 134.909 10.5833 134.753 10.2954C134.602 10.0037 134.371 9.77837 134.06 9.61928C133.75 9.4564 133.356 9.37496 132.878 9.37496H131.219V19H128.759Z" fill="white"></path></svg>