<svg xmlns="http://www.w3.org/2000/svg" width="139" height="27" viewBox="0 0 139 27" fill="none"><path d="M18.5789 1.62983L7.74588 1.5481C6.55424 1.54031 5.57288 2.5089 5.56508 3.70055L5.43747 23.2001C5.42967 24.3918 6.39827 25.3731 7.58991 25.3809L18.423 25.4518C19.6147 25.4596 20.596 24.491 20.6038 23.2994L20.7314 3.7998C20.7392 2.60816 19.7706 1.63763 18.5789 1.62983ZM18.4514 21.1186L7.61827 21.0477L7.71753 5.88134L18.5506 5.95224L18.4514 21.1186Z" fill="#262626"></path><path d="M39.8399 7.36364H42.2717V15.4773C42.2717 16.2273 42.1031 16.8788 41.766 17.4318C41.4327 17.9848 40.9687 18.411 40.374 18.7102C39.7793 19.0095 39.088 19.1591 38.3001 19.1591C37.5994 19.1591 36.963 19.036 36.391 18.7898C35.8228 18.5398 35.3721 18.161 35.0388 17.6534C34.7054 17.142 34.5406 16.5 34.5444 15.7273H36.9933C37.0009 16.0341 37.0634 16.2973 37.1808 16.517C37.302 16.733 37.4668 16.8996 37.6751 17.017C37.8872 17.1307 38.1372 17.1875 38.4251 17.1875C38.7281 17.1875 38.9838 17.1231 39.1922 16.9943C39.4043 16.8617 39.5653 16.6686 39.6751 16.4148C39.785 16.161 39.8399 15.8485 39.8399 15.4773V7.36364ZM54.0388 7.36364V19H51.9138L46.8513 11.6761H46.766V19H44.3058V7.36364H46.4649L51.4876 14.6818H51.5899V7.36364H54.0388ZM60.1964 19H56.0714V7.36364H60.2305C61.401 7.36364 62.4085 7.59659 63.2532 8.0625C64.0979 8.52462 64.7476 9.18939 65.2021 10.0568C65.6604 10.9242 65.8896 11.9621 65.8896 13.1705C65.8896 14.3826 65.6604 15.4242 65.2021 16.2955C64.7476 17.1667 64.0941 17.8352 63.2419 18.3011C62.3934 18.767 61.3782 19 60.1964 19ZM58.5316 16.892H60.0941C60.8214 16.892 61.4332 16.7633 61.9294 16.5057C62.4294 16.2443 62.8044 15.8409 63.0544 15.2955C63.3082 14.7462 63.4351 14.0379 63.4351 13.1705C63.4351 12.3106 63.3082 11.608 63.0544 11.0625C62.8044 10.517 62.4313 10.1155 61.9351 9.85795C61.4388 9.60038 60.8271 9.47159 60.0998 9.47159H58.5316V16.892ZM74.0245 10.7102C73.9791 10.2519 73.784 9.89583 73.4393 9.64205C73.0946 9.38826 72.6268 9.26136 72.0359 9.26136C71.6344 9.26136 71.2954 9.31818 71.0189 9.43182C70.7424 9.54167 70.5302 9.69508 70.3825 9.89205C70.2386 10.089 70.1666 10.3125 70.1666 10.5625C70.159 10.7708 70.2026 10.9527 70.2973 11.108C70.3958 11.2633 70.5302 11.3977 70.7007 11.5114C70.8711 11.6212 71.0681 11.7178 71.2916 11.8011C71.5151 11.8807 71.7537 11.9489 72.0075 12.0057L73.053 12.2557C73.5605 12.3693 74.0264 12.5208 74.4507 12.7102C74.8749 12.8996 75.2424 13.1326 75.553 13.4091C75.8636 13.6856 76.1041 14.0114 76.2745 14.3864C76.4488 14.7614 76.5378 15.1913 76.5416 15.6761C76.5378 16.3883 76.356 17.0057 75.9961 17.5284C75.6401 18.0473 75.1249 18.4508 74.4507 18.7386C73.7802 19.0227 72.9715 19.1648 72.0245 19.1648C71.0852 19.1648 70.267 19.0208 69.57 18.733C68.8768 18.4451 68.3352 18.0189 67.945 17.4545C67.5586 16.8864 67.356 16.1837 67.337 15.3466H69.7177C69.7442 15.7367 69.856 16.0625 70.053 16.3239C70.2537 16.5814 70.5208 16.7765 70.8541 16.9091C71.1912 17.0379 71.5719 17.1023 71.9961 17.1023C72.4128 17.1023 72.7745 17.0417 73.0814 16.9205C73.392 16.7992 73.6325 16.6307 73.803 16.4148C73.9734 16.1989 74.0586 15.9508 74.0586 15.6705C74.0586 15.4091 73.981 15.1894 73.8257 15.0114C73.6742 14.8333 73.4507 14.6818 73.1552 14.5568C72.8636 14.4318 72.5056 14.3182 72.0814 14.2159L70.8143 13.8977C69.8333 13.6591 69.0586 13.286 68.4905 12.7784C67.9223 12.2708 67.6401 11.5871 67.6439 10.7273C67.6401 10.0227 67.8276 9.4072 68.2064 8.88068C68.5889 8.35417 69.1136 7.94318 69.7802 7.64773C70.4469 7.35227 71.2045 7.20455 72.053 7.20455C72.9166 7.20455 73.6704 7.35227 74.3143 7.64773C74.962 7.94318 75.4658 8.35417 75.8257 8.88068C76.1855 9.4072 76.3711 10.017 76.3825 10.7102H74.0245ZM89.6155 11.125C89.5359 10.8485 89.4242 10.6042 89.2802 10.392C89.1363 10.1761 88.9602 9.99432 88.7518 9.84659C88.5473 9.69508 88.3124 9.57955 88.0473 9.5C87.7859 9.42045 87.4961 9.38068 87.178 9.38068C86.5833 9.38068 86.0605 9.52841 85.6098 9.82386C85.1628 10.1193 84.8143 10.5492 84.5643 11.1136C84.3143 11.6742 84.1893 12.3598 84.1893 13.1705C84.1893 13.9811 84.3124 14.6705 84.5586 15.2386C84.8049 15.8068 85.1533 16.2405 85.6041 16.5398C86.0549 16.8352 86.587 16.983 87.2007 16.983C87.7575 16.983 88.2329 16.8845 88.6268 16.6875C89.0245 16.4867 89.3276 16.2045 89.5359 15.8409C89.748 15.4773 89.8541 15.0473 89.8541 14.5511L90.3541 14.625H87.3541V12.7727H92.2234V14.2386C92.2234 15.2614 92.0075 16.1402 91.5757 16.875C91.1439 17.6061 90.5492 18.1705 89.7916 18.5682C89.034 18.9621 88.1666 19.1591 87.1893 19.1591C86.0984 19.1591 85.1401 18.9186 84.3143 18.4375C83.4886 17.9527 82.8446 17.2652 82.3825 16.375C81.9242 15.4811 81.695 14.4205 81.695 13.1932C81.695 12.25 81.8314 11.4091 82.1041 10.6705C82.3806 9.92803 82.767 9.29924 83.2632 8.78409C83.7594 8.26894 84.337 7.87689 84.9961 7.60795C85.6552 7.33901 86.3692 7.20455 87.1382 7.20455C87.7973 7.20455 88.4109 7.30114 88.9791 7.49432C89.5473 7.68371 90.0511 7.95265 90.4905 8.30114C90.9336 8.64962 91.2954 9.06439 91.5757 9.54545C91.856 10.0227 92.0359 10.5492 92.1155 11.125H89.6155ZM94.0714 19V7.36364H98.6623C99.5411 7.36364 100.291 7.52083 100.912 7.83523C101.537 8.14583 102.013 8.58712 102.338 9.15909C102.668 9.72727 102.833 10.3958 102.833 11.1648C102.833 11.9375 102.666 12.6023 102.333 13.1591C101.999 13.7121 101.516 14.1364 100.884 14.4318C100.255 14.7273 99.4938 14.875 98.5998 14.875H95.526V12.8977H98.2021C98.6718 12.8977 99.062 12.8333 99.3726 12.7045C99.6832 12.5758 99.9142 12.3826 100.066 12.125C100.221 11.8674 100.299 11.5473 100.299 11.1648C100.299 10.7784 100.221 10.4527 100.066 10.1875C99.9142 9.92235 99.6813 9.72159 99.3669 9.58523C99.0563 9.44508 98.6642 9.375 98.1907 9.375H96.5316V19H94.0714ZM100.356 13.7045L103.248 19H100.532L97.7021 13.7045H100.356ZM115.265 13.1818C115.265 14.4508 115.024 15.5303 114.543 16.4205C114.066 17.3106 113.414 17.9905 112.588 18.4602C111.766 18.9261 110.842 19.1591 109.816 19.1591C108.782 19.1591 107.854 18.9242 107.032 18.4545C106.21 17.9848 105.56 17.3049 105.083 16.4148C104.606 15.5246 104.367 14.447 104.367 13.1818C104.367 11.9129 104.606 10.8333 105.083 9.94318C105.56 9.05303 106.21 8.375 107.032 7.90909C107.854 7.43939 108.782 7.20455 109.816 7.20455C110.842 7.20455 111.766 7.43939 112.588 7.90909C113.414 8.375 114.066 9.05303 114.543 9.94318C115.024 10.8333 115.265 11.9129 115.265 13.1818ZM112.77 13.1818C112.77 12.3598 112.647 11.6667 112.401 11.1023C112.159 10.5379 111.816 10.1098 111.373 9.81818C110.929 9.52652 110.41 9.38068 109.816 9.38068C109.221 9.38068 108.702 9.52652 108.259 9.81818C107.816 10.1098 107.471 10.5379 107.225 11.1023C106.982 11.6667 106.861 12.3598 106.861 13.1818C106.861 14.0038 106.982 14.697 107.225 15.2614C107.471 15.8258 107.816 16.2538 108.259 16.5455C108.702 16.8371 109.221 16.983 109.816 16.983C110.41 16.983 110.929 16.8371 111.373 16.5455C111.816 16.2538 112.159 15.8258 112.401 15.2614C112.647 14.697 112.77 14.0038 112.77 13.1818ZM124.275 7.36364H126.735V14.9205C126.735 15.7689 126.532 16.5114 126.127 17.1477C125.725 17.7841 125.163 18.2803 124.439 18.6364C123.716 18.9886 122.873 19.1648 121.911 19.1648C120.945 19.1648 120.1 18.9886 119.377 18.6364C118.653 18.2803 118.091 17.7841 117.689 17.1477C117.288 16.5114 117.087 15.7689 117.087 14.9205V7.36364H119.547V14.7102C119.547 15.1534 119.644 15.5473 119.837 15.892C120.034 16.2367 120.311 16.5076 120.667 16.7045C121.023 16.9015 121.437 17 121.911 17C122.388 17 122.803 16.9015 123.155 16.7045C123.511 16.5076 123.786 16.2367 123.979 15.892C124.176 15.5473 124.275 15.1534 124.275 14.7102V7.36364ZM128.759 19V7.36364H133.35C134.232 7.36364 134.984 7.5322 135.606 7.86932C136.227 8.20265 136.7 8.66667 137.026 9.26136C137.356 9.85227 137.52 10.5341 137.52 11.3068C137.52 12.0795 137.354 12.7614 137.02 13.3523C136.687 13.9432 136.204 14.4034 135.571 14.733C134.943 15.0625 134.181 15.2273 133.287 15.2273H130.361V13.2557H132.89C133.363 13.2557 133.753 13.1742 134.06 13.0114C134.371 12.8447 134.602 12.6155 134.753 12.3239C134.909 12.0284 134.986 11.6894 134.986 11.3068C134.986 10.9205 134.909 10.5833 134.753 10.2955C134.602 10.0038 134.371 9.77841 134.06 9.61932C133.749 9.45644 133.356 9.375 132.878 9.375H131.219V19H128.759Z" fill="#262626"></path></svg>